<svg xmlns="http://www.w3.org/2000/svg" width="960" height="320" viewBox="0 0 960 320">
  <rect width="960" height="320" fill="#f6fbff"/>
  <text x="30" y="42" font-family="Arial" font-size="28" fill="#2b4570" font-weight="700">Option B: Detailed Flat Human (Coaching Overlay)</text>

  <g transform="translate(90,82)">
    <rect x="-20" y="182" width="180" height="12" rx="6" fill="#c7d7ee"/>
    <circle cx="60" cy="24" r="18" fill="#ffd4b7" stroke="#dfa07a" stroke-width="2"/>
    <rect x="46" y="42" width="28" height="72" rx="12" fill="#3f89ff"/>
    <line x1="46" y1="64" x2="18" y2="116" stroke="#ffb88a" stroke-width="10" stroke-linecap="round"/>
    <line x1="74" y1="64" x2="102" y2="116" stroke="#ffb88a" stroke-width="10" stroke-linecap="round"/>
    <line x1="53" y1="112" x2="40" y2="164" stroke="#2f6fd7" stroke-width="12" stroke-linecap="round"/>
    <line x1="67" y1="112" x2="80" y2="164" stroke="#2f6fd7" stroke-width="12" stroke-linecap="round"/>
    <line x1="40" y1="164" x2="36" y2="190" stroke="#1f4c9b" stroke-width="10" stroke-linecap="round"/>
    <line x1="80" y1="164" x2="84" y2="190" stroke="#1f4c9b" stroke-width="10" stroke-linecap="round"/>
    <text x="118" y="60" font-family="Arial" font-size="14" fill="#5b7299">Chest up</text>
    <line x1="106" y1="64" x2="84" y2="64" stroke="#5b7299" stroke-width="2"/>
  </g>

  <g transform="translate(390,95)">
    <rect x="-20" y="182" width="180" height="12" rx="6" fill="#c7d7ee"/>
    <circle cx="60" cy="24" r="18" fill="#ffd4b7" stroke="#dfa07a" stroke-width="2"/>
    <rect x="46" y="44" width="28" height="66" rx="12" fill="#3f89ff" transform="rotate(9 60 76)"/>
    <line x1="47" y1="67" x2="24" y2="108" stroke="#ffb88a" stroke-width="10" stroke-linecap="round"/>
    <line x1="73" y1="67" x2="96" y2="108" stroke="#ffb88a" stroke-width="10" stroke-linecap="round"/>
    <line x1="55" y1="112" x2="22" y2="152" stroke="#2f6fd7" stroke-width="12" stroke-linecap="round"/>
    <line x1="65" y1="112" x2="98" y2="152" stroke="#2f6fd7" stroke-width="12" stroke-linecap="round"/>
    <line x1="22" y1="152" x2="30" y2="190" stroke="#1f4c9b" stroke-width="10" stroke-linecap="round"/>
    <line x1="98" y1="152" x2="90" y2="190" stroke="#1f4c9b" stroke-width="10" stroke-linecap="round"/>
    <text x="116" y="102" font-family="Arial" font-size="14" fill="#5b7299">Knees out</text>
    <line x1="104" y1="106" x2="84" y2="118" stroke="#5b7299" stroke-width="2"/>
  </g>

  <g transform="translate(690,82)">
    <rect x="-20" y="182" width="180" height="12" rx="6" fill="#c7d7ee"/>
    <circle cx="60" cy="24" r="18" fill="#ffd4b7" stroke="#dfa07a" stroke-width="2"/>
    <rect x="46" y="42" width="28" height="72" rx="12" fill="#3f89ff"/>
    <line x1="46" y1="64" x2="18" y2="116" stroke="#ffb88a" stroke-width="10" stroke-linecap="round"/>
    <line x1="74" y1="64" x2="102" y2="116" stroke="#ffb88a" stroke-width="10" stroke-linecap="round"/>
    <line x1="53" y1="112" x2="40" y2="164" stroke="#2f6fd7" stroke-width="12" stroke-linecap="round"/>
    <line x1="67" y1="112" x2="80" y2="164" stroke="#2f6fd7" stroke-width="12" stroke-linecap="round"/>
    <line x1="40" y1="164" x2="36" y2="190" stroke="#1f4c9b" stroke-width="10" stroke-linecap="round"/>
    <line x1="80" y1="164" x2="84" y2="190" stroke="#1f4c9b" stroke-width="10" stroke-linecap="round"/>
    <text x="118" y="156" font-family="Arial" font-size="14" fill="#5b7299">Stand tall</text>
    <line x1="106" y1="160" x2="84" y2="142" stroke="#5b7299" stroke-width="2"/>
  </g>

  <text x="120" y="302" font-family="Arial" font-size="20" fill="#3f5d8f" font-weight="700">Frame 1</text>
  <text x="425" y="302" font-family="Arial" font-size="20" fill="#3f5d8f" font-weight="700">Frame 2</text>
  <text x="727" y="302" font-family="Arial" font-size="20" fill="#3f5d8f" font-weight="700">Frame 3</text>
</svg>
