<svg xmlns="http://www.w3.org/2000/svg" width="960" height="320" viewBox="0 0 960 320">
  <defs>
    <linearGradient id="bg" x1="0" y1="0" x2="1" y2="1">
      <stop offset="0%" stop-color="#ecf7ff"/>
      <stop offset="100%" stop-color="#dce9ff"/>
    </linearGradient>
  </defs>
  <rect width="960" height="320" fill="url(#bg)"/>
  <text x="30" y="42" font-family="Arial" font-size="28" fill="#2b4570" font-weight="700">Option A: Clean Toon Trainer (Start → Squat → Stand)</text>

  <g transform="translate(95,86)">
    <rect x="-35" y="182" width="170" height="14" rx="7" fill="#b4c9e9"/>
    <circle cx="50" cy="26" r="19" fill="#ffc9a3" stroke="#e2a57a" stroke-width="2"/>
    <rect x="35" y="45" width="30" height="68" rx="14" fill="#6fa7ff"/>
    <line x1="35" y1="66" x2="12" y2="116" stroke="#ffc08c" stroke-width="10" stroke-linecap="round"/>
    <line x1="65" y1="66" x2="88" y2="116" stroke="#ffc08c" stroke-width="10" stroke-linecap="round"/>
    <line x1="45" y1="112" x2="33" y2="165" stroke="#4f8cff" stroke-width="12" stroke-linecap="round"/>
    <line x1="55" y1="112" x2="67" y2="165" stroke="#4f8cff" stroke-width="12" stroke-linecap="round"/>
    <line x1="33" y1="165" x2="30" y2="190" stroke="#3b67b3" stroke-width="10" stroke-linecap="round"/>
    <line x1="67" y1="165" x2="70" y2="190" stroke="#3b67b3" stroke-width="10" stroke-linecap="round"/>
  </g>

  <g transform="translate(390,96)">
    <rect x="-35" y="182" width="170" height="14" rx="7" fill="#b4c9e9"/>
    <circle cx="50" cy="26" r="19" fill="#ffc9a3" stroke="#e2a57a" stroke-width="2"/>
    <rect x="35" y="45" width="30" height="64" rx="14" fill="#6fa7ff" transform="rotate(9 50 80)"/>
    <line x1="35" y1="66" x2="16" y2="112" stroke="#ffc08c" stroke-width="10" stroke-linecap="round"/>
    <line x1="65" y1="66" x2="84" y2="112" stroke="#ffc08c" stroke-width="10" stroke-linecap="round"/>
    <line x1="44" y1="112" x2="20" y2="156" stroke="#4f8cff" stroke-width="12" stroke-linecap="round"/>
    <line x1="56" y1="112" x2="80" y2="156" stroke="#4f8cff" stroke-width="12" stroke-linecap="round"/>
    <line x1="20" y1="156" x2="27" y2="190" stroke="#3b67b3" stroke-width="10" stroke-linecap="round"/>
    <line x1="80" y1="156" x2="73" y2="190" stroke="#3b67b3" stroke-width="10" stroke-linecap="round"/>
  </g>

  <g transform="translate(685,86)">
    <rect x="-35" y="182" width="170" height="14" rx="7" fill="#b4c9e9"/>
    <circle cx="50" cy="26" r="19" fill="#ffc9a3" stroke="#e2a57a" stroke-width="2"/>
    <rect x="35" y="45" width="30" height="68" rx="14" fill="#6fa7ff"/>
    <line x1="35" y1="66" x2="12" y2="116" stroke="#ffc08c" stroke-width="10" stroke-linecap="round"/>
    <line x1="65" y1="66" x2="88" y2="116" stroke="#ffc08c" stroke-width="10" stroke-linecap="round"/>
    <line x1="45" y1="112" x2="33" y2="165" stroke="#4f8cff" stroke-width="12" stroke-linecap="round"/>
    <line x1="55" y1="112" x2="67" y2="165" stroke="#4f8cff" stroke-width="12" stroke-linecap="round"/>
    <line x1="33" y1="165" x2="30" y2="190" stroke="#3b67b3" stroke-width="10" stroke-linecap="round"/>
    <line x1="67" y1="165" x2="70" y2="190" stroke="#3b67b3" stroke-width="10" stroke-linecap="round"/>
  </g>

  <text x="150" y="302" font-family="Arial" font-size="20" fill="#3f5d8f" font-weight="700">Start</text>
  <text x="442" y="302" font-family="Arial" font-size="20" fill="#3f5d8f" font-weight="700">Bottom</text>
  <text x="740" y="302" font-family="Arial" font-size="20" fill="#3f5d8f" font-weight="700">Finish</text>
</svg>
